<?xml version="1.0" encoding="utf-8"?>
<!-- Generator: Adobe Illustrator 25.2.0, SVG Export Plug-In . SVG Version: 6.00 Build 0)  -->
<svg version="1.1" id="レイヤー_1" xmlns="http://www.w3.org/2000/svg" xmlns:xlink="http://www.w3.org/1999/xlink" x="0px"
	 y="0px" viewBox="0 0 200 200" style="enable-background:new 0 0 200 200;" xml:space="preserve">
<style type="text/css">
	.st0{fill:#FFFFFF;stroke:#C8C8C8;stroke-width:12;stroke-miterlimit:10;}
</style>
<g id="outlined">
	<circle class="st0" cx="150.3" cy="78.1" r="30.8"/>
</g>
<path class="st0" d="M150.7,99.2c-2.5-10.7-12.2-18.8-23.7-18.8h-8c-3,0-5.8,0.5-8.4,1.5c-4.7-11-15.7-18.8-28.3-18.8H69.6
	c-16.9,0-30.8,13.9-30.8,30.8l0,0c0,2.7,0.3,5.3,1,7.8c-7.8,4-13.3,12.1-13.3,21.5l0,0c0,13.3,10.9,24.1,24.1,24.1h98.2
	c13.3,0,24.1-10.9,24.1-24.1l0,0C173,110.6,163.1,100.2,150.7,99.2z"/>
</svg>
