<?xml version="1.0" encoding="utf-8"?>
<!-- Generator: Adobe Illustrator 25.2.0, SVG Export Plug-In . SVG Version: 6.00 Build 0)  -->
<svg version="1.1" id="レイヤー_1" xmlns="http://www.w3.org/2000/svg" xmlns:xlink="http://www.w3.org/1999/xlink" x="0px"
	 y="0px" viewBox="0 0 200 200" style="enable-background:new 0 0 200 200;" xml:space="preserve">
<style type="text/css">
	.st0{fill:#FFFFFF;stroke:#C8C8C8;stroke-width:12;stroke-linecap:round;stroke-linejoin:round;stroke-miterlimit:10;}
	.st1{fill:#FFFFFF;stroke:#C8C8C8;stroke-width:12;stroke-miterlimit:10;}
</style>
<g id="レイヤー_2_1_">
	<g id="outlined">
		<path class="st0" d="M139.2,38.6c0-0.6,0-1,0-1.5c-21.4,8.3-32.1,32.3-23.8,53.8c8.3,21.4,32.3,32.1,53.8,23.8
			c8.1-3.1,15-8.7,19.7-16C160.1,93.2,139.2,68,139.2,38.6z"/>
	</g>
</g>
<path class="st1" d="M150.7,113.4c-2.5-10.7-12.2-18.8-23.7-18.8h-8c-3,0-5.8,0.5-8.4,1.5c-4.7-11-15.7-18.8-28.3-18.8H69.6
	c-16.9,0-30.8,13.9-30.8,30.8l0,0c0,2.7,0.3,5.3,1,7.8c-7.8,4-13.3,12.1-13.3,21.5l0,0c0,13.3,10.9,24.1,24.1,24.1h98.2
	c13.3,0,24.1-10.9,24.1-24.1l0,0C173,124.8,163.1,114.4,150.7,113.4z"/>
</svg>
