<?xml version="1.0" encoding="utf-8"?>
<!-- Generator: Adobe Illustrator 25.2.0, SVG Export Plug-In . SVG Version: 6.00 Build 0)  -->
<svg version="1.1" id="レイヤー_1" xmlns="http://www.w3.org/2000/svg" xmlns:xlink="http://www.w3.org/1999/xlink" x="0px"
	 y="0px" viewBox="0 0 200 200" style="enable-background:new 0 0 200 200;" xml:space="preserve">
<style type="text/css">
	.st0{fill:none;}
	.st1{fill:#FFFFFF;stroke:#C8C8C8;stroke-width:12;stroke-miterlimit:10;}
</style>
<g id="レイヤー_2_1_">
	<g id="outlined">
		<rect class="st0" width="200" height="200"/>
	</g>
</g>
<path class="st1" d="M161.7,92.2c-3.1-12.6-14.7-22-28.6-22h-9.7c-3.6,0-7,0.6-10.2,1.8c-5.7-12.9-18.9-22-34.2-22H63.8
	c-20.4,0-37.2,16.2-37.2,36.1v0c0,3.1,0.4,6.2,1.2,9.1c-9.5,4.7-16,14.2-16,25.2v0c0,15.5,13.1,28.3,29.1,28.3h118.5
	c16,0,29.1-12.7,29.1-28.3v0C188.6,105.5,176.7,93.3,161.7,92.2z"/>
</svg>
