<?xml version="1.0" encoding="utf-8"?>
<!-- Generator: Adobe Illustrator 25.2.0, SVG Export Plug-In . SVG Version: 6.00 Build 0)  -->
<svg version="1.1" id="レイヤー_1" xmlns="http://www.w3.org/2000/svg" xmlns:xlink="http://www.w3.org/1999/xlink" x="0px"
	 y="0px" viewBox="0 0 200 200" style="enable-background:new 0 0 200 200;" xml:space="preserve">
<style type="text/css">
	.st0{fill:none;}
	.st1{fill:#FFFFFF;stroke:#C8C8C8;stroke-width:12;stroke-miterlimit:10;}
</style>
<g id="レイヤー_2_1_">
	<g id="outlined">
		<rect class="st0" width="200" height="200"/>
	</g>
</g>
<path class="st1" d="M161.5,84.1c-3.1-12.6-14.7-22-28.6-22h-9.7c-3.6,0-7,0.6-10.2,1.8c-5.7-12.9-18.9-22-34.2-22H63.6
	c-20.4,0-37.2,16.2-37.2,36.1v0c0,3.1,0.4,6.2,1.2,9.1c-9.5,4.7-16,14.2-16,25.2v0c0,15.5,13.1,28.3,29.1,28.3h118.5
	c16,0,29.1-12.7,29.1-28.3v0C188.3,97.4,176.4,85.2,161.5,84.1z"/>
<path class="st1" d="M151.1,112.7c-2.4-10.1-11.7-17.7-22.7-17.7h-7.7c-2.8,0-5.6,0.5-8.1,1.4c-4.5-10.4-15-17.7-27.1-17.7h-12
	C57.3,78.7,44,91.8,44,107.8v0c0,2.5,0.3,5,1,7.3c-7.5,3.8-12.7,11.5-12.7,20.3v0c0,12.5,10.4,22.8,23.1,22.8h94
	c12.7,0,23.1-10.2,23.1-22.8v0C172.4,123.5,163,113.6,151.1,112.7z"/>
</svg>
