<?xml version="1.0" encoding="utf-8"?>
<!-- Generator: Adobe Illustrator 25.2.0, SVG Export Plug-In . SVG Version: 6.00 Build 0)  -->
<svg version="1.1" id="レイヤー_1" xmlns="http://www.w3.org/2000/svg" xmlns:xlink="http://www.w3.org/1999/xlink" x="0px"
	 y="0px" viewBox="0 0 200 200" style="enable-background:new 0 0 200 200;" xml:space="preserve">
<style type="text/css">
	.st0{fill:#FFFFFF;stroke:#C8C8C8;stroke-width:12;stroke-miterlimit:10;}
	.st1{fill:none;stroke:#C8C8C8;stroke-width:12;stroke-linecap:round;stroke-linejoin:round;stroke-miterlimit:10;}
	.st2{fill:none;stroke:#C8C8C8;stroke-width:12;stroke-linecap:round;stroke-miterlimit:10;}
	.st3{fill:none;stroke:#FFFFFF;stroke-width:25;stroke-linecap:round;stroke-linejoin:round;}
</style>
<path class="st0" d="M161.5,67.8c-3.1-12.6-14.7-22-28.6-22h-9.7c-3.6,0-7,0.6-10.2,1.8c-5.7-12.9-18.9-22-34.2-22H63.6
	c-20.4,0-37.2,16.2-37.2,36.1l0,0c0,3.1,0.4,6.2,1.2,9.1c-9.5,4.7-16,14.2-16,25.2l0,0c0,15.5,13.1,28.3,29.1,28.3h118.5
	c16,0,29.1-12.7,29.1-28.3l0,0C188.3,81.2,176.4,68.9,161.5,67.8z"/>
<path class="st0" d="M151.1,96.5c-2.4-10.2-11.7-17.8-22.7-17.8h-7.7c-2.8,0-5.6,0.5-8.1,1.4c-4.5-10.4-15-17.7-27.1-17.7h-12
	C57.3,62.4,44,75.5,44,91.5l0,0c0,2.5,0.3,5,1,7.3c-7.5,3.8-12.7,11.5-12.7,20.3l0,0c0,12.5,10.4,22.8,23.1,22.8h94
	c12.7,0,23.1-10.2,23.1-22.8l0,0C172.4,107.2,163,97.4,151.1,96.5z"/>
<g>
	<g>
		<g>
			<line class="st1" x1="66.3" y1="134.3" x2="70.8" y2="146.9"/>
			<line class="st2" x1="75.8" y1="161" x2="76.3" y2="162.4"/>
			<line class="st2" x1="81.5" y1="176.9" x2="82" y2="178.4"/>
		</g>
		<g>
			<line class="st1" x1="89.6" y1="134.3" x2="94.2" y2="146.9"/>
			<line class="st2" x1="99.2" y1="161" x2="99.7" y2="162.4"/>
			<line class="st2" x1="104.9" y1="176.9" x2="105.4" y2="178.4"/>
		</g>
		<g>
			<line class="st1" x1="113" y1="134.3" x2="117.5" y2="146.9"/>
			<line class="st2" x1="122.5" y1="161" x2="123" y2="162.4"/>
			<line class="st2" x1="128.2" y1="176.9" x2="128.8" y2="178.4"/>
		</g>
		<g>
			<line class="st1" x1="136.4" y1="134.3" x2="140.9" y2="146.9"/>
			<line class="st2" x1="145.9" y1="161" x2="146.4" y2="162.4"/>
			<line class="st2" x1="151.6" y1="176.9" x2="152.1" y2="178.4"/>
		</g>
	</g>
	<g>
		<g>
			<line class="st3" x1="66.3" y1="134.3" x2="70.8" y2="146.9"/>
			<line class="st3" x1="75.8" y1="161" x2="76.3" y2="162.4"/>
			<line class="st3" x1="81.5" y1="176.9" x2="82" y2="178.4"/>
		</g>
		<g>
			<line class="st3" x1="89.6" y1="134.3" x2="94.2" y2="146.9"/>
			<line class="st3" x1="99.2" y1="161" x2="99.7" y2="162.4"/>
			<line class="st3" x1="104.9" y1="176.9" x2="105.4" y2="178.4"/>
		</g>
		<g>
			<line class="st3" x1="113" y1="134.3" x2="117.5" y2="146.9"/>
			<line class="st3" x1="122.5" y1="161" x2="123" y2="162.4"/>
			<line class="st3" x1="128.2" y1="176.9" x2="128.8" y2="178.4"/>
		</g>
		<g>
			<line class="st3" x1="136.4" y1="134.3" x2="140.9" y2="146.9"/>
			<line class="st3" x1="145.9" y1="161" x2="146.4" y2="162.4"/>
			<line class="st3" x1="151.6" y1="176.9" x2="152.1" y2="178.4"/>
		</g>
	</g>
</g>
<g>
	<g>
		<line class="st1" x1="66.3" y1="134.3" x2="70.8" y2="146.9"/>
		<line class="st2" x1="75.8" y1="161" x2="76.3" y2="162.4"/>
		<line class="st2" x1="81.5" y1="176.9" x2="82" y2="178.4"/>
	</g>
	<g>
		<line class="st1" x1="89.6" y1="134.3" x2="94.2" y2="146.9"/>
		<line class="st2" x1="99.2" y1="161" x2="99.7" y2="162.4"/>
		<line class="st2" x1="104.9" y1="176.9" x2="105.4" y2="178.4"/>
	</g>
	<g>
		<line class="st1" x1="113" y1="134.3" x2="117.5" y2="146.9"/>
		<line class="st2" x1="122.5" y1="161" x2="123" y2="162.4"/>
		<line class="st2" x1="128.2" y1="176.9" x2="128.8" y2="178.4"/>
	</g>
	<g>
		<line class="st1" x1="136.4" y1="134.3" x2="140.9" y2="146.9"/>
		<line class="st2" x1="145.9" y1="161" x2="146.4" y2="162.4"/>
		<line class="st2" x1="151.6" y1="176.9" x2="152.1" y2="178.4"/>
	</g>
</g>
</svg>
