<?xml version="1.0" encoding="utf-8"?>
<!-- Generator: Adobe Illustrator 25.2.0, SVG Export Plug-In . SVG Version: 6.00 Build 0)  -->
<svg version="1.1" id="レイヤー_1" xmlns="http://www.w3.org/2000/svg" xmlns:xlink="http://www.w3.org/1999/xlink" x="0px"
	 y="0px" viewBox="0 0 200 200" style="enable-background:new 0 0 200 200;" xml:space="preserve">
<style type="text/css">
	.st0{fill:#FFFFFF;stroke:#C8C8C8;stroke-width:12;stroke-miterlimit:10;}
	.st1{fill:none;stroke:#C8C8C8;stroke-width:12;stroke-linecap:round;stroke-linejoin:round;stroke-miterlimit:10;}
	.st2{fill:none;stroke:#C8C8C8;stroke-width:12;stroke-linecap:round;stroke-miterlimit:10;}
	.st3{fill:none;stroke:#FFFFFF;stroke-width:25;stroke-linecap:round;stroke-linejoin:round;}
</style>
<path class="st0" d="M162,68.3c-3.1-12.6-14.7-22-28.6-22h-9.7c-3.6,0-7,0.6-10.2,1.8c-5.7-12.9-18.9-22-34.2-22H64.1
	C43.7,26.1,27,42.3,27,62.2l0,0c0,3.1,0.4,6.2,1.2,9.1c-9.5,4.7-16,14.2-16,25.2l0,0c0,15.5,13.1,28.3,29.1,28.3h118.5
	c16,0,29.1-12.7,29.1-28.3l0,0C188.8,81.7,176.9,69.4,162,68.3z"/>
<path class="st0" d="M151.6,97c-2.4-10.1-11.7-17.7-22.7-17.7h-7.7c-2.8,0-5.6,0.5-8.1,1.4C108.6,70.3,98.1,63,86,63H74
	c-16.2,0-29.5,13.1-29.5,29.1l0,0c0,2.5,0.3,5,1,7.3c-7.5,3.7-12.7,11.4-12.7,20.3l0,0c0,12.5,10.4,22.8,23.1,22.8h94
	c12.7,0,23.1-10.2,23.1-22.8l0,0C172.9,107.7,163.5,97.9,151.6,97z"/>
<g>
	<g>
		<g>
			<line class="st1" x1="66.8" y1="134.8" x2="71.3" y2="147.4"/>
			<line class="st2" x1="76.3" y1="161.5" x2="76.8" y2="162.9"/>
			<line class="st2" x1="82" y1="177.4" x2="82.5" y2="178.8"/>
		</g>
		<g>
			<line class="st1" x1="90.1" y1="134.8" x2="94.7" y2="147.4"/>
			<line class="st2" x1="99.7" y1="161.5" x2="100.2" y2="162.9"/>
			<line class="st2" x1="105.4" y1="177.4" x2="105.9" y2="178.8"/>
		</g>
		<g>
			<line class="st1" x1="113.5" y1="134.8" x2="118" y2="147.4"/>
			<line class="st2" x1="123" y1="161.5" x2="123.5" y2="162.9"/>
			<line class="st2" x1="128.7" y1="177.4" x2="129.3" y2="178.8"/>
		</g>
		<g>
			<line class="st1" x1="136.9" y1="134.8" x2="141.4" y2="147.4"/>
			<line class="st2" x1="146.4" y1="161.5" x2="146.9" y2="162.9"/>
			<line class="st2" x1="152.1" y1="177.4" x2="152.6" y2="178.8"/>
		</g>
	</g>
	<g>
		<g>
			<line class="st3" x1="66.8" y1="134.8" x2="71.3" y2="147.4"/>
			<line class="st3" x1="76.3" y1="161.5" x2="76.8" y2="162.9"/>
			<line class="st3" x1="82" y1="177.4" x2="82.5" y2="178.8"/>
		</g>
		<g>
			<line class="st3" x1="90.1" y1="134.8" x2="94.7" y2="147.4"/>
			<line class="st3" x1="99.7" y1="161.5" x2="100.2" y2="162.9"/>
			<line class="st3" x1="105.4" y1="177.4" x2="105.9" y2="178.8"/>
		</g>
		<g>
			<line class="st3" x1="113.5" y1="134.8" x2="118" y2="147.4"/>
			<line class="st3" x1="123" y1="161.5" x2="123.5" y2="162.9"/>
			<line class="st3" x1="128.7" y1="177.4" x2="129.3" y2="178.8"/>
		</g>
		<g>
			<line class="st3" x1="136.9" y1="134.8" x2="141.4" y2="147.4"/>
			<line class="st3" x1="146.4" y1="161.5" x2="146.9" y2="162.9"/>
			<line class="st3" x1="152.1" y1="177.4" x2="152.6" y2="178.8"/>
		</g>
	</g>
</g>
<g>
	<g>
		<line class="st1" x1="66.8" y1="134.8" x2="71.3" y2="147.4"/>
		<line class="st2" x1="76.3" y1="161.5" x2="76.8" y2="162.9"/>
		<line class="st2" x1="82" y1="177.4" x2="82.5" y2="178.8"/>
	</g>
	<g>
		<line class="st1" x1="90.1" y1="134.8" x2="94.7" y2="147.4"/>
		<line class="st2" x1="99.7" y1="161.5" x2="100.2" y2="162.9"/>
		<line class="st2" x1="105.4" y1="177.4" x2="105.9" y2="178.8"/>
	</g>
	<g>
		<line class="st1" x1="113.5" y1="134.8" x2="118" y2="147.4"/>
		<line class="st2" x1="123" y1="161.5" x2="123.5" y2="162.9"/>
		<line class="st2" x1="128.7" y1="177.4" x2="129.3" y2="178.8"/>
	</g>
	<g>
		<line class="st1" x1="136.9" y1="134.8" x2="141.4" y2="147.4"/>
		<line class="st2" x1="146.4" y1="161.5" x2="146.9" y2="162.9"/>
		<line class="st2" x1="152.1" y1="177.4" x2="152.6" y2="178.8"/>
	</g>
</g>
</svg>
