<?xml version="1.0" encoding="utf-8"?>
<!-- Generator: Adobe Illustrator 25.2.0, SVG Export Plug-In . SVG Version: 6.00 Build 0)  -->
<svg version="1.1" id="レイヤー_1" xmlns="http://www.w3.org/2000/svg" xmlns:xlink="http://www.w3.org/1999/xlink" x="0px"
	 y="0px" viewBox="0 0 200 200" style="enable-background:new 0 0 200 200;" xml:space="preserve">
<style type="text/css">
	.st0{fill:none;}
	.st1{fill:#FFFFFF;stroke:#C8C8C8;stroke-width:12;stroke-miterlimit:10;}
	.st2{fill:none;stroke:#C8C8C8;stroke-width:12;stroke-linecap:round;stroke-miterlimit:10;}
	.st3{fill:none;stroke:#FFFFFF;stroke-width:25;stroke-linecap:round;stroke-linejoin:round;}
</style>
<g id="レイヤー_2_1_">
	<g id="outlined">
		<rect y="5.7" class="st0" width="200" height="200"/>
	</g>
</g>
<g>
	<path class="st1" d="M161.5,68.6c-3.1-12.6-14.7-22-28.6-22h-9.7c-3.6,0-7,0.6-10.2,1.8c-5.7-12.9-18.9-22-34.2-22H63.6
		c-20.4,0-37.2,16.2-37.2,36.1l0,0c0,3.1,0.4,6.2,1.2,9.1c-9.5,4.7-16,14.2-16,25.2l0,0c0,15.5,13.1,28.3,29.1,28.3h118.5
		c16,0,29.1-12.7,29.1-28.3l0,0C188.3,81.9,176.4,69.7,161.5,68.6z"/>
	<g>
		<g>
			<g>
				<g>
					<line class="st2" x1="53.8" y1="183.6" x2="53.8" y2="185"/>
				</g>
				<g>
					<line class="st2" x1="82.9" y1="170.6" x2="82.9" y2="172.1"/>
				</g>
			</g>
			<g>
				<g>
					<line class="st3" x1="53.8" y1="183.6" x2="53.8" y2="185"/>
				</g>
				<g>
					<line class="st3" x1="82.9" y1="170.6" x2="82.9" y2="172.1"/>
				</g>
			</g>
		</g>
		<g>
			<g>
				<line class="st2" x1="53.8" y1="183.6" x2="53.8" y2="185"/>
			</g>
			<g>
				<line class="st2" x1="82.9" y1="170.6" x2="82.9" y2="172.1"/>
			</g>
		</g>
		<g>
			<g>
				<g>
					<line class="st2" x1="53.8" y1="157.9" x2="53.8" y2="159.3"/>
				</g>
				<g>
					<line class="st2" x1="82.9" y1="144.9" x2="82.9" y2="146.3"/>
				</g>
			</g>
			<g>
				<g>
					<line class="st3" x1="53.8" y1="157.9" x2="53.8" y2="159.3"/>
				</g>
				<g>
					<line class="st3" x1="82.9" y1="144.9" x2="82.9" y2="146.3"/>
				</g>
			</g>
		</g>
		<g>
			<g>
				<line class="st2" x1="53.8" y1="157.9" x2="53.8" y2="159.3"/>
			</g>
			<g>
				<line class="st2" x1="82.9" y1="144.9" x2="82.9" y2="146.3"/>
			</g>
		</g>
		<g>
			<g>
				<g>
					<line class="st2" x1="53.8" y1="132.1" x2="53.8" y2="133.5"/>
				</g>
			</g>
			<g>
				<g>
					<line class="st3" x1="53.8" y1="132.1" x2="53.8" y2="133.5"/>
				</g>
			</g>
		</g>
		<g>
			<g>
				<line class="st2" x1="53.8" y1="132.1" x2="53.8" y2="133.5"/>
			</g>
		</g>
		<g>
			<g>
				<g>
					<line class="st2" x1="111.9" y1="183.6" x2="111.9" y2="185"/>
				</g>
				<g>
					<line class="st2" x1="140.9" y1="170.6" x2="140.9" y2="172.1"/>
				</g>
			</g>
			<g>
				<g>
					<line class="st3" x1="111.9" y1="183.6" x2="111.9" y2="185"/>
				</g>
				<g>
					<line class="st3" x1="140.9" y1="170.6" x2="140.9" y2="172.1"/>
				</g>
			</g>
		</g>
		<g>
			<g>
				<line class="st2" x1="111.9" y1="183.6" x2="111.9" y2="185"/>
			</g>
			<g>
				<line class="st2" x1="140.9" y1="170.6" x2="140.9" y2="172.1"/>
			</g>
		</g>
		<g>
			<g>
				<g>
					<line class="st2" x1="111.9" y1="157.9" x2="111.9" y2="159.3"/>
				</g>
				<g>
					<line class="st2" x1="140.9" y1="144.9" x2="140.9" y2="146.3"/>
				</g>
			</g>
			<g>
				<g>
					<line class="st3" x1="111.9" y1="157.9" x2="111.9" y2="159.3"/>
				</g>
				<g>
					<line class="st3" x1="140.9" y1="144.9" x2="140.9" y2="146.3"/>
				</g>
			</g>
		</g>
		<g>
			<g>
				<line class="st2" x1="111.9" y1="157.9" x2="111.9" y2="159.3"/>
			</g>
			<g>
				<line class="st2" x1="140.9" y1="144.9" x2="140.9" y2="146.3"/>
			</g>
		</g>
		<g>
			<g>
				<g>
					<line class="st2" x1="111.9" y1="132.1" x2="111.9" y2="133.5"/>
				</g>
			</g>
			<g>
				<g>
					<line class="st3" x1="111.9" y1="132.1" x2="111.9" y2="133.5"/>
				</g>
			</g>
		</g>
		<g>
			<g>
				<line class="st2" x1="111.9" y1="132.1" x2="111.9" y2="133.5"/>
			</g>
		</g>
	</g>
</g>
</svg>
