<?xml version="1.0" encoding="utf-8"?>
<!-- Generator: Adobe Illustrator 25.2.0, SVG Export Plug-In . SVG Version: 6.00 Build 0)  -->
<svg version="1.1" id="レイヤー_1" xmlns="http://www.w3.org/2000/svg" xmlns:xlink="http://www.w3.org/1999/xlink" x="0px"
	 y="0px" viewBox="0 0 200 200" style="enable-background:new 0 0 200 200;" xml:space="preserve">
<style type="text/css">
	.st0{fill:none;stroke:#FFFFFF;stroke-width:12;stroke-miterlimit:10;}
	.st1{fill:#C8C8C8;}
	.st2{fill:#FFFFFF;}
	.st3{fill:none;stroke:#C8C8C8;stroke-width:12;stroke-miterlimit:10;}
	.st4{fill:none;stroke:#FFFFFF;stroke-width:12;stroke-linecap:round;stroke-linejoin:round;stroke-miterlimit:10;}
	.st5{fill:none;stroke:#C8C8C8;stroke-width:12;stroke-linecap:round;stroke-linejoin:round;}
</style>
<g>
	<g>
		<g>
			<path class="st0" d="M137.3,89.8c13.5-20.7,7.6-48.4-13.1-61.8s-48.3-7.7-61.7,13c-9.7,14.8-9.7,33.9,0,48.8
				c-11.3,10.4-17.6,25-17.6,40.4c0,30.4,24.7,49.1,55.1,49.1s55.1-18.7,55.1-49.1C155,114.8,148.6,100.2,137.3,89.8z"/>
			<path class="st1" d="M137.3,89.8c13.5-20.7,7.6-48.4-13.1-61.8s-48.3-7.7-61.7,13c-9.7,14.8-9.7,33.9,0,48.8
				c-11.3,10.4-17.6,25-17.6,40.4c0,30.4,24.7,49.1,55.1,49.1s55.1-18.7,55.1-49.1C155,114.8,148.6,100.2,137.3,89.8z"/>
		</g>
		<g>
			<path class="st2" d="M137.3,89.8c13.5-20.7,7.6-48.4-13.1-61.8s-48.3-7.7-61.7,13c-9.7,14.8-9.7,33.9,0,48.8
				c-11.3,10.4-17.6,25-17.6,40.4c0,30.4,24.7,49.1,55.1,49.1s55.1-18.7,55.1-49.1C155,114.8,148.6,100.2,137.3,89.8z"/>
			<path class="st2" d="M137.3,89.8c13.5-20.7,7.6-48.4-13.1-61.8s-48.3-7.7-61.7,13c-9.7,14.8-9.7,33.9,0,48.8
				c-11.3,10.4-17.6,25-17.6,40.4c0,30.4,24.7,49.1,55.1,49.1s55.1-18.7,55.1-49.1C155,114.8,148.6,100.2,137.3,89.8z"/>
		</g>
		<g>
			<path class="st3" d="M137.3,89.8c13.5-20.7,7.6-48.4-13.1-61.8s-48.3-7.7-61.7,13c-9.7,14.8-9.7,33.9,0,48.8
				c-11.3,10.4-17.6,25-17.6,40.4c0,30.4,24.7,49.1,55.1,49.1s55.1-18.7,55.1-49.1C155,114.8,148.6,100.2,137.3,89.8z"/>
			<path class="st3" d="M137.3,89.8c13.5-20.7,7.6-48.4-13.1-61.8s-48.3-7.7-61.7,13c-9.7,14.8-9.7,33.9,0,48.8
				c-11.3,10.4-17.6,25-17.6,40.4c0,30.4,24.7,49.1,55.1,49.1s55.1-18.7,55.1-49.1C155,114.8,148.6,100.2,137.3,89.8z"/>
		</g>
	</g>
	<g>
		<g>
			<line class="st4" x1="84.6" y1="56.3" x2="84.6" y2="65.2"/>
			<line class="st4" x1="115.2" y1="56.3" x2="115.2" y2="65.2"/>
		</g>
		<g>
			<line class="st5" x1="84.6" y1="56.3" x2="84.6" y2="65.2"/>
			<line class="st5" x1="115.2" y1="56.3" x2="115.2" y2="65.2"/>
		</g>
	</g>
</g>
</svg>
