<?xml version="1.0" encoding="utf-8"?>
<!-- Generator: Adobe Illustrator 25.2.0, SVG Export Plug-In . SVG Version: 6.00 Build 0)  -->
<svg version="1.1" id="レイヤー_1" xmlns="http://www.w3.org/2000/svg" xmlns:xlink="http://www.w3.org/1999/xlink" x="0px"
	 y="0px" viewBox="0 0 200 200" style="enable-background:new 0 0 200 200;" xml:space="preserve">
<style type="text/css">
	.st0{fill:none;}
	.st1{fill:none;stroke:#FFFFFF;stroke-width:12;stroke-miterlimit:10;}
	.st2{fill:#C8C8C8;}
</style>
<g id="レイヤー_2_1_">
	<g id="outlined">
		<rect class="st0" width="200" height="200"/>
		<g>
			<path class="st1" d="M60.7,81.4c-13,0.1-26-1.7-38.5-5.2c-3.2-0.9-5-4.2-4.1-7.4s4.2-5,7.4-4.1c29.3,8.4,57.4,3.7,79.9,0l2.6-0.4
				c25.3-4.2,49.1-8.2,71.4,0.7c2.9,1.6,4,5.3,2.4,8.2c-1.3,2.4-4.1,3.6-6.8,2.9c-19.2-7.6-40.4-4.1-65,0l-2.6,0.4
				C93.6,78.7,77.8,81.4,60.7,81.4z"/>
			<path class="st2" d="M60.7,81.4c-13,0.1-26-1.7-38.5-5.2c-3.2-0.9-5-4.2-4.1-7.4s4.2-5,7.4-4.1c29.3,8.4,57.4,3.7,79.9,0l2.6-0.4
				c25.3-4.2,49.1-8.2,71.4,0.7c2.9,1.6,4,5.3,2.4,8.2c-1.3,2.4-4.1,3.6-6.8,2.9c-19.2-7.6-40.4-4.1-65,0l-2.6,0.4
				C93.6,78.7,77.8,81.4,60.7,81.4z"/>
		</g>
		<g>
			<path class="st1" d="M60.7,110.9c-13,0.1-26-1.6-38.5-5.2c-3.2-0.9-5-4.2-4.1-7.4s4.2-5,7.4-4.1c29.3,8.4,57.4,3.7,79.9-0.1
				l2.6-0.4c25.3-4.2,49.1-8.2,71.4,0.7c3,1.4,4.3,5,2.9,8c-1.3,2.8-4.4,4.1-7.3,3.2c-19.1-7.7-40.4-4.1-64.9,0l-2.6,0.4
				C93.6,108.3,77.8,110.9,60.7,110.9z"/>
			<path class="st2" d="M60.7,110.9c-13,0.1-26-1.6-38.5-5.2c-3.2-0.9-5-4.2-4.1-7.4s4.2-5,7.4-4.1c29.3,8.4,57.4,3.7,79.9-0.1
				l2.6-0.4c25.3-4.2,49.1-8.2,71.4,0.7c3,1.4,4.3,5,2.9,8c-1.3,2.8-4.4,4.1-7.3,3.2c-19.1-7.7-40.4-4.1-64.9,0l-2.6,0.4
				C93.6,108.3,77.8,110.9,60.7,110.9z"/>
		</g>
		<g>
			<path class="st1" d="M60.7,140.5c-13,0.1-26-1.6-38.5-5.2c-3.2-0.8-5.2-4.1-4.4-7.3c0.8-3.2,4.1-5.2,7.3-4.4
				c0.1,0,0.3,0.1,0.4,0.1c29.3,8.4,57.4,3.7,79.9-0.1l2.6-0.4c25.3-4.2,49.1-8.2,71.4,0.7c3.1,1,4.8,4.4,3.8,7.6s-4.4,4.8-7.6,3.8
				c-0.2-0.1-0.4-0.2-0.6-0.2c-19.1-7.7-40.4-4.1-64.9,0l-2.6,0.4C93.6,137.9,77.8,140.5,60.7,140.5z"/>
			<path class="st2" d="M60.7,140.5c-13,0.1-26-1.6-38.5-5.2c-3.2-0.8-5.2-4.1-4.4-7.3c0.8-3.2,4.1-5.2,7.3-4.4
				c0.1,0,0.3,0.1,0.4,0.1c29.3,8.4,57.4,3.7,79.9-0.1l2.6-0.4c25.3-4.2,49.1-8.2,71.4,0.7c3.1,1,4.8,4.4,3.8,7.6s-4.4,4.8-7.6,3.8
				c-0.2-0.1-0.4-0.2-0.6-0.2c-19.1-7.7-40.4-4.1-64.9,0l-2.6,0.4C93.6,137.9,77.8,140.5,60.7,140.5z"/>
		</g>
	</g>
</g>
</svg>
