<?xml version="1.0" encoding="utf-8"?>
<!-- Generator: Adobe Illustrator 25.2.0, SVG Export Plug-In . SVG Version: 6.00 Build 0)  -->
<svg version="1.1" id="レイヤー_1" xmlns="http://www.w3.org/2000/svg" xmlns:xlink="http://www.w3.org/1999/xlink" x="0px"
	 y="0px" viewBox="0 0 200 200" style="enable-background:new 0 0 200 200;" xml:space="preserve">
<style type="text/css">
	.st0{fill:#606060;}
	.st1{fill:none;stroke:#C8C8C8;stroke-width:24;stroke-linecap:round;stroke-linejoin:round;stroke-miterlimit:10;}
	.st2{fill:#FFFFFF;}
	.st3{fill:#E97600;}
</style>
<g>
	<g>
		<g>
			<rect x="81.8" y="26.1" class="st0" width="36.4" height="97.7"/>
			<circle class="st0" cx="100" cy="137.1" r="36.8"/>
		</g>
		<g>
			<rect x="81.8" y="26.1" class="st1" width="36.4" height="97.7"/>
			<circle class="st1" cx="100" cy="137.1" r="36.8"/>
		</g>
		<g>
			<rect x="81.8" y="26.1" class="st2" width="36.4" height="97.7"/>
			<circle class="st2" cx="100" cy="137.1" r="36.8"/>
		</g>
	</g>
	<g>
		<g>
			<rect x="93.1" y="71.4" class="st0" width="13.8" height="52.4"/>
			<rect x="93.1" y="59.8" class="st0" width="13.8" height="6.1"/>
			<rect x="93.1" y="48.2" class="st0" width="13.8" height="6.1"/>
			<rect x="93.1" y="36.7" class="st0" width="13.8" height="6.1"/>
			<ellipse class="st0" cx="100" cy="137.1" rx="28.1" ry="28.3"/>
		</g>
		<g>
			<rect x="93.1" y="71.4" class="st3" width="13.8" height="52.4"/>
			<rect x="93.1" y="59.8" class="st3" width="13.8" height="6.1"/>
			<rect x="93.1" y="48.2" class="st3" width="13.8" height="6.1"/>
			<rect x="93.1" y="36.7" class="st3" width="13.8" height="6.1"/>
			<ellipse class="st3" cx="100" cy="137.1" rx="28.1" ry="28.3"/>
		</g>
	</g>
</g>
</svg>
